<svg width="307" height="64" viewBox="0 0 307 64" fill="none" xmlns="http://www.w3.org/2000/svg">
<path d="M143.629 30.9005V23.203H132.761C132.685 24.1471 132.575 24.9533 132.568 25.7596C132.568 32.2237 132.644 38.7015 132.506 45.1655C132.417 49.1831 129.667 51.7191 125.96 51.5951C122.252 51.471 120.116 49.0315 120.074 44.9656C120.019 40.4794 120.074 36.007 120.074 31.507V23.2374H108.525C108.525 30.6524 108.525 37.8332 108.525 45.0208C108.525 48.9281 106.333 51.3332 102.846 51.5055C99.0146 51.6915 96.4372 49.3623 96.1892 45.3033C96.01 42.3952 96.0582 39.4664 96.0444 36.5445C96.0444 32.1065 96.0444 27.6685 96.0444 23.2788H85.0184C85.0184 30.8592 84.977 38.1364 85.0184 45.4343C85.0323 46.9963 85.2454 48.5502 85.6524 50.0583C88.8775 61.7735 103.418 67.2038 114.306 58.2383C114.672 58.4726 114.94 58.6311 115.188 58.824C121.032 63.324 127.441 64.0752 133.974 60.8914C140.507 57.7076 143.67 52.0637 143.629 44.6693C143.587 40.0797 143.629 35.5246 143.629 30.9005Z" fill="white"/>
<path d="M168.424 23.072C159.63 23.4235 152.078 29.8668 150.038 38.7497C148.025 47.5154 152.174 56.2536 160.375 60.4986C168.575 64.7437 179.712 62.8968 185.824 56.1089L179.05 48.1288C172.717 51.6847 169.871 52.1739 166.198 50.1961L189.842 40.4932C186.217 28.7436 178.616 22.6654 168.424 23.072ZM161.787 41.1272C162.545 35.0146 168.107 32.6509 174.192 35.9656L161.787 41.1272Z" fill="white"/>
<path d="M282.488 0.0482178H271.235V11.6256H282.488V0.0482178Z" fill="white"/>
<path d="M222.334 24.6708C219.727 23.4679 216.888 22.8471 214.016 22.8515C208.892 23.1035 204.061 25.3165 200.524 29.0322C196.986 32.7479 195.013 37.6818 195.013 42.8121C195.013 47.9425 196.986 52.8763 200.524 56.5921C204.061 60.3078 208.892 62.5208 214.016 62.7727C216.888 62.7772 219.727 62.1564 222.334 60.9534V62.7727H233.946V42.788C233.941 38.9751 232.844 35.2433 230.787 32.0331C228.729 28.8229 225.796 26.2683 222.334 24.6708ZM214.016 51.1265C212.371 51.1265 210.763 50.6385 209.395 49.7242C208.027 48.8099 206.961 47.5104 206.331 45.9902C205.702 44.4699 205.538 42.7971 205.859 41.1834C206.181 39.5697 206.973 38.0877 208.137 36.9247C209.301 35.7617 210.784 34.97 212.398 34.6499C214.012 34.3297 215.685 34.4954 217.204 35.126C218.724 35.7566 220.023 36.8238 220.936 38.1926C221.849 39.5613 222.336 41.1702 222.334 42.8156C222.331 45.0198 221.453 47.1327 219.894 48.6907C218.334 50.2487 216.221 51.1246 214.016 51.1265Z" fill="white"/>
<path d="M265.191 26.4143C261.056 22.7068 254.606 21.804 249.479 23.8163C246.674 24.8788 244.303 26.8452 242.739 29.4051C240.906 32.5407 240.534 36.448 240.534 40.0108V62.7521H251.788V37.3714C251.776 36.6361 251.98 35.9135 252.375 35.2927C252.769 34.6719 253.336 34.18 254.007 33.8776C256.501 32.8163 258.541 35.2007 258.541 35.2007L266.17 27.4066C265.874 27.0475 265.546 26.7154 265.191 26.4143Z" fill="white"/>
<path d="M282.502 22.7275H271.249V62.7727H282.502V22.7275Z" fill="white"/>
<path d="M306.677 34.4909V22.8171H301.646V0H290.654C290.654 17.8071 290.572 35.3592 290.716 52.9044V53.0767C290.716 53.0767 290.716 53.0767 290.716 53.1318C290.734 54.2061 290.954 55.2674 291.364 56.2605C291.454 56.4741 291.55 56.6946 291.654 56.9083C291.757 57.1219 291.826 57.239 291.915 57.3975C292.675 58.6989 293.687 59.8352 294.893 60.7398C296.81 62.2575 299.167 63.1155 301.612 63.1862H306.67V51.3746H301.804V34.4909H306.677Z" fill="white"/>
<path d="M42.0688 20.931H18.9309V32.5H42.0688V20.931Z" fill="white"/>
<path d="M16.1801 36.2478V52.2983H10.113V12.7217C10.115 11.3148 9.85492 9.92126 9.34763 8.6208C8.84034 7.32034 8.09579 6.13844 7.15656 5.14269C6.21733 4.14693 5.10184 3.35684 3.87387 2.8176C2.64589 2.27835 1.32951 2.00052 0 2L0 63H26.2931V46.9495C26.2921 44.1115 25.2263 41.3901 23.33 39.3834C21.4336 37.3767 18.8619 36.2488 16.1801 36.2478V36.2478Z" fill="white"/>
<path d="M42.2311 36.2478C39.1202 36.2488 36.137 37.3767 33.9372 39.3834C31.7375 41.3901 30.5012 44.1115 30.5 46.9495V63H61V2C57.8891 2.00106 54.9059 3.1289 52.7061 5.13562C50.5064 7.14235 49.2701 9.86375 49.2689 12.7017V52.2983H42.2311V36.2478Z" fill="white"/>
</svg>
