<svg width="350" height="108" viewBox="0 0 350 108" fill="none" xmlns="http://www.w3.org/2000/svg">
<path d="M186.629 41.9005V34.203H175.761C175.685 35.1471 175.575 35.9533 175.568 36.7596C175.568 43.2237 175.644 49.7015 175.506 56.1655C175.417 60.1831 172.667 62.7191 168.96 62.5951C165.252 62.471 163.116 60.0315 163.074 55.9656C163.019 51.4794 163.074 47.007 163.074 42.507V34.2374H151.525C151.525 41.6524 151.525 48.8332 151.525 56.0208C151.525 59.9281 149.333 62.3332 145.846 62.5055C142.015 62.6915 139.437 60.3623 139.189 56.3033C139.01 53.3952 139.058 50.4664 139.044 47.5445C139.044 43.1065 139.044 38.6685 139.044 34.2788H128.018C128.018 41.8592 127.977 49.1364 128.018 56.4343C128.032 57.9963 128.245 59.5502 128.652 61.0583C131.877 72.7735 146.418 78.2038 157.306 69.2383C157.672 69.4726 157.94 69.6311 158.188 69.824C164.032 74.324 170.441 75.0752 176.974 71.8914C183.507 68.7076 186.67 63.0637 186.629 55.6693C186.587 51.0797 186.629 46.5246 186.629 41.9005Z" fill="white"/>
<path d="M211.424 34.072C202.63 34.4235 195.078 40.8668 193.038 49.7497C191.025 58.5154 195.174 67.2536 203.375 71.4986C211.575 75.7437 222.712 73.8968 228.824 67.1089L222.05 59.1288C215.717 62.6847 212.871 63.1739 209.198 61.1961L232.842 51.4932C229.217 39.7436 221.616 33.6654 211.424 34.072ZM204.787 52.1272C205.545 46.0146 211.107 43.6509 217.192 46.9656L204.787 52.1272Z" fill="white"/>
<path d="M325.488 11.0482H314.235V22.6256H325.488V11.0482Z" fill="white"/>
<path d="M265.334 35.6708C262.727 34.4679 259.888 33.8471 257.016 33.8515C251.892 34.1035 247.061 36.3164 243.524 40.0322C239.986 43.7479 238.013 48.6818 238.013 53.8121C238.013 58.9425 239.986 63.8763 243.524 67.5921C247.061 71.3078 251.892 73.5208 257.016 73.7727C259.888 73.7772 262.727 73.1563 265.334 71.9534V73.7727H276.946V53.788C276.941 49.975 275.844 46.2433 273.787 43.0331C271.729 39.8229 268.796 37.2683 265.334 35.6708ZM257.016 62.1265C255.371 62.1265 253.763 61.6384 252.395 60.7242C251.027 59.8099 249.961 58.5104 249.331 56.9902C248.702 55.4699 248.537 53.7971 248.859 52.1834C249.18 50.5697 249.973 49.0877 251.137 47.9247C252.301 46.7617 253.784 45.97 255.398 45.6499C257.012 45.3297 258.685 45.4954 260.204 46.126C261.724 46.7566 263.023 47.8238 263.936 49.1926C264.849 50.5613 265.336 52.1702 265.334 53.8156C265.331 56.0198 264.453 58.1327 262.894 59.6907C261.334 61.2487 259.221 62.1246 257.016 62.1265V62.1265Z" fill="white"/>
<path d="M308.191 37.4143C304.056 33.7068 297.606 32.804 292.479 34.8163C289.674 35.8788 287.303 37.8452 285.739 40.4051C283.906 43.5407 283.534 47.448 283.534 51.0108V73.7521H294.788V48.3714C294.776 47.6361 294.98 46.9135 295.375 46.2927C295.769 45.6719 296.336 45.18 297.007 44.8776C299.501 43.8163 301.541 46.2007 301.541 46.2007L309.17 38.4066C308.874 38.0475 308.546 37.7154 308.191 37.4143V37.4143Z" fill="white"/>
<path d="M325.502 33.7275H314.249V73.7727H325.502V33.7275Z" fill="white"/>
<path d="M349.677 45.4909V33.8171H344.646V11H333.654C333.654 28.8071 333.572 46.3592 333.716 63.9044V64.0767C333.716 64.0767 333.716 64.0767 333.716 64.1318C333.734 65.2061 333.954 66.2674 334.364 67.2605C334.454 67.4741 334.55 67.6946 334.654 67.9083C334.757 68.1219 334.826 68.239 334.916 68.3975C335.675 69.6989 336.687 70.8352 337.893 71.7398V71.7398C339.81 73.2575 342.167 74.1155 344.612 74.1862H349.67V62.3746H344.805V45.4909H349.677Z" fill="white"/>
<rect x="3" y="3" width="102" height="102" stroke="white" stroke-width="6"/>
<path d="M66.8966 41.1035H41.1034V54H66.8966V41.1035Z" fill="white"/>
<path d="M38.0368 58.1779V76.0703H31.2735V31.952C31.2757 30.3837 30.9858 28.8303 30.4203 27.3806C29.8548 25.9309 29.0248 24.6133 27.9778 23.5033C26.9308 22.3933 25.6873 21.5125 24.3184 20.9114C22.9495 20.3103 21.4821 20.0006 20 20L20 88H49.3103V70.1076C49.3092 66.944 48.1211 63.9103 46.0072 61.6733C43.8932 59.4363 41.0264 58.179 38.0368 58.1779V58.1779Z" fill="white"/>
<path d="M67.0773 58.1779C63.6094 58.179 60.2839 59.4363 57.8317 61.6733C55.3795 63.9103 54.0013 66.944 54 70.1076V88H88V20C84.5321 20.0012 81.2066 21.2584 78.7544 23.4954C76.3022 25.7325 74.924 28.7661 74.9227 31.9297V76.0703H67.0773V58.1779Z" fill="white"/>
</svg>
